<svg xmlns="http://www.w3.org/2000/svg" version="1.1" xmlns:xlink="http://www.w3.org/1999/xlink" viewBox="0 0 23.09130826391082 5.065741288511182"><g transform="matrix(0.6834363888335321,0,0,0.6834363888335321,8.17630318795526,2.0278712953098283)"><g transform="matrix(1,0,0,1,0,0)" clip-path="url(#SvgjsClipPath12931)"><g clip-path="url(#SvgjsClipPath12929fed08696-c795-4989-bb9a-e9038a6995ff)"><path d=" M -3.463656026717449 -0.6207482462380076 L -1.5640546361373184 -0.6207482462380076 L -3.5428283741705213 1.2069917569016093 L -5.442429764750652 1.2069917569016093 Z" fill="#006fbf" transform="matrix(1,0,0,1,0,0)" fill-rule="nonzero"></path></g><g clip-path="url(#SvgjsClipPath12929fed08696-c795-4989-bb9a-e9038a6995ff)"><path d=" M -2.3046013905801304 0.27083224309839093 L -0.40500000000000025 0.27083224309839093 L -2.3837737380332036 2.0985722462380076 L -4.283375128613334 2.0985722462380076 Z" fill="#c84449" transform="matrix(1,0,0,1,0,0)" fill-rule="nonzero"></path></g></g><g><path d=" M 1.2672960000000002 0.3632639999999998 L 0.8462400000000001 0.3632639999999998 L 0.8462400000000001 1.477824 L 0.44376000000000004 1.477824 L 0.44376000000000004 0.3632639999999998 L 0.020640000000000002 0.3632639999999998 L 0.020640000000000002 0.012383999999999729 L 1.2672960000000002 0.012383999999999729 L 1.2672960000000002 0.3632639999999998 M 1.6244113359375 0.012383999999999729 L 2.0743633359375 0.012383999999999729 L 2.5408273359375 1.477824 L 2.1321553359375 1.477824 L 2.0434033359375 1.190928 L 1.6533073359375 1.190928 L 1.5666193359375 1.477824 L 1.1558833359375 1.477824 L 1.6244113359375 0.012383999999999729 M 1.9794193359375 0.922608 L 1.8493873359375002 0.40660799999999986 L 1.7131633359375 0.922608 L 1.9794193359375 0.922608 M 3.53979628125 0.4912319999999999 Q 3.53979628125 0.4912319999999999 3.50470828125 0.4705919999999999 Q 3.46962028125 0.4499519999999999 3.41182828125 0.42415199999999986 Q 3.35403628125 0.3983519999999998 3.2859242812500002 0.3777119999999998 Q 3.21781228125 0.35707199999999983 3.15176428125 0.35707199999999983 Q 3.10016428125 0.35707199999999983 3.06714028125 0.3735839999999999 Q 3.03411628125 0.3900959999999998 3.03411628125 0.4293119999999999 Q 3.03411628125 0.466464 3.06714028125 0.48916799999999994 Q 3.10016428125 0.5118719999999999 3.16105228125 0.5304479999999999 Q 3.22194028125 0.5490239999999998 3.30656428125 0.5758559999999999 Q 3.4427882812500004 0.6171359999999999 3.54186028125 0.6708 Q 3.6409322812500005 0.7244639999999999 3.69459628125 0.8080559999999999 Q 3.7482602812500003 0.891648 3.7482602812500003 1.029936 Q 3.7482602812500003 1.162032 3.7007882812500004 1.251816 Q 3.6533162812500004 1.3416000000000001 3.5728202812500003 1.395264 Q 3.49232428125 1.448928 3.39325228125 1.472664 Q 3.29418028125 1.4964 3.19098028125 1.4964 Q 3.08571628125 1.4964 2.97116428125 1.474728 Q 2.85661228125 1.4530560000000001 2.74928428125 1.414872 Q 2.64195628125 1.376688 2.55320428125 1.325088 L 2.72658028125 0.972144 Q 2.72658028125 0.972144 2.76786028125 0.996912 Q 2.80914028125 1.02168 2.87725228125 1.05264 Q 2.9453642812500003 1.0836 3.02895628125 1.108368 Q 3.11254828125 1.133136 3.1971722812500003 1.133136 Q 3.26322028125 1.133136 3.28902028125 1.115592 Q 3.3148202812500003 1.098048 3.3148202812500003 1.0691519999999999 Q 3.3148202812500003 1.025808 3.26941228125 1.002072 Q 3.22400428125 0.9783359999999999 3.1507322812500003 0.956664 Q 3.07746028125 0.9349919999999999 2.98870828125 0.9060959999999999 Q 2.86074028125 0.862752 2.77818028125 0.8080559999999999 Q 2.69562028125 0.7533599999999999 2.65640428125 0.678024 Q 2.61718828125 0.6026879999999999 2.61718828125 0.4953599999999999 Q 2.61718828125 0.33230399999999993 2.6935562812500002 0.22291199999999978 Q 2.7699242812500002 0.11351999999999984 2.89479628125 0.05675999999999992 Q 3.01966828125 -2.220446049250313e-16 3.16414828125 -2.220446049250313e-16 Q 3.27147628125 -2.220446049250313e-16 3.37158028125 0.025799999999999823 Q 3.47168428125 0.05159999999999987 3.55940428125 0.08875199999999972 Q 3.64712428125 0.1259039999999998 3.7131722812500003 0.15892799999999974 L 3.53979628125 0.4912319999999999 M 3.9319653515625 1.477824 L 3.9319653515625 0.012383999999999729 L 4.3344453515625005 0.012383999999999729 L 4.3344453515625005 0.569664 L 4.7802693515625005 0.012383999999999729 L 5.2343493515625 0.012383999999999729 L 4.7018373515625 0.6687359999999999 L 5.271501351562501 1.477824 L 4.8091653515625 1.477824 L 4.4459013515625 0.93912 L 4.3344453515625005 1.054704 L 4.3344453515625005 1.477824 L 3.9319653515625 1.477824 M 6.916414617187501 1.477824 L 6.916414617187501 0.705888 L 6.6707986171875 1.24872 L 6.4561426171875 1.24872 L 6.2105266171875 0.705888 L 6.2105266171875 1.477824 L 5.8080466171875 1.477824 L 5.8080466171875 0.012383999999999729 L 6.2476786171875 0.012383999999999729 L 6.5634706171875 0.7017599999999999 L 6.881326617187501 0.012383999999999729 L 7.3188946171875005 0.012383999999999729 L 7.3188946171875005 1.477824 L 6.916414617187501 1.477824 M 7.915398679687501 0.012383999999999729 L 8.3653506796875 0.012383999999999729 L 8.8318146796875 1.477824 L 8.423142679687501 1.477824 L 8.3343906796875 1.190928 L 7.9442946796875 1.190928 L 7.857606679687501 1.477824 L 7.446870679687501 1.477824 L 7.915398679687501 0.012383999999999729 M 8.2704066796875 0.922608 L 8.1403746796875 0.40660799999999986 L 8.0041506796875 0.922608 L 8.2704066796875 0.922608 M 9.830783625 0.4912319999999999 Q 9.830783625 0.4912319999999999 9.795695625 0.4705919999999999 Q 9.760607625 0.4499519999999999 9.702815625 0.42415199999999986 Q 9.645023625 0.3983519999999998 9.576911625 0.3777119999999998 Q 9.508799625 0.35707199999999983 9.442751625 0.35707199999999983 Q 9.391151625 0.35707199999999983 9.358127625 0.3735839999999999 Q 9.325103625 0.3900959999999998 9.325103625 0.4293119999999999 Q 9.325103625 0.466464 9.358127625 0.48916799999999994 Q 9.391151625 0.5118719999999999 9.452039625 0.5304479999999999 Q 9.512927625 0.5490239999999998 9.597551625 0.5758559999999999 Q 9.733775625 0.6171359999999999 9.832847625 0.6708 Q 9.931919625 0.7244639999999999 9.985583625 0.8080559999999999 Q 10.039247625 0.891648 10.039247625 1.029936 Q 10.039247625 1.162032 9.991775625 1.251816 Q 9.944303625 1.3416000000000001 9.863807625 1.395264 Q 9.783311625 1.448928 9.684239625 1.472664 Q 9.585167625 1.4964 9.481967625 1.4964 Q 9.376703625 1.4964 9.262151625 1.474728 Q 9.147599625 1.4530560000000001 9.040271625 1.414872 Q 8.932943625 1.376688 8.844191625 1.325088 L 9.017567625 0.972144 Q 9.017567625 0.972144 9.058847625 0.996912 Q 9.100127625 1.02168 9.168239625 1.05264 Q 9.236351625 1.0836 9.319943625 1.108368 Q 9.403535625 1.133136 9.488159625 1.133136 Q 9.554207625 1.133136 9.580007625 1.115592 Q 9.605807625 1.098048 9.605807625 1.0691519999999999 Q 9.605807625 1.025808 9.560399625 1.002072 Q 9.514991625 0.9783359999999999 9.441719625 0.956664 Q 9.368447625 0.9349919999999999 9.279695625 0.9060959999999999 Q 9.151727625 0.862752 9.069167625 0.8080559999999999 Q 8.986607625 0.7533599999999999 8.947391625 0.678024 Q 8.908175625 0.6026879999999999 8.908175625 0.4953599999999999 Q 8.908175625 0.33230399999999993 8.984543625 0.22291199999999978 Q 9.060911625 0.11351999999999984 9.185783625 0.05675999999999992 Q 9.310655625 -2.220446049250313e-16 9.455135625 -2.220446049250313e-16 Q 9.562463625 -2.220446049250313e-16 9.662567625 0.025799999999999823 Q 9.762671625 0.05159999999999987 9.850391625 0.08875199999999972 Q 9.938111625 0.1259039999999998 10.004159625 0.15892799999999974 L 9.830783625 0.4912319999999999 M 11.3643446953125 0.3632639999999998 L 10.9432886953125 0.3632639999999998 L 10.9432886953125 1.477824 L 10.5408086953125 1.477824 L 10.5408086953125 0.3632639999999998 L 10.1176886953125 0.3632639999999998 L 10.1176886953125 0.012383999999999729 L 11.3643446953125 0.012383999999999729 L 11.3643446953125 0.3632639999999998 M 12.5615130703125 1.126944 L 12.5615130703125 1.477824 L 11.5171290703125 1.477824 L 11.5171290703125 0.012383999999999729 L 12.5429370703125 0.012383999999999729 L 12.5429370703125 0.3632639999999998 L 11.9196090703125 0.3632639999999998 L 11.9196090703125 0.569664 L 12.452121070312499 0.569664 L 12.452121070312499 0.8957759999999999 L 11.9196090703125 0.8957759999999999 L 11.9196090703125 1.126944 L 12.5615130703125 1.126944 M 12.755497828125 1.477824 L 12.755497828125 0.012383999999999729 L 13.428361828125 0.012383999999999729 Q 13.535689828125 0.012383999999999729 13.626505828125 0.05572799999999978 Q 13.717321828125 0.09907199999999983 13.783369828125 0.17234399999999983 Q 13.849417828125 0.24561599999999983 13.885537828124999 0.33643199999999984 Q 13.921657828125 0.42724799999999985 13.921657828125 0.5201279999999999 Q 13.921657828125 0.604752 13.896889828125 0.6831839999999999 Q 13.872121828125 0.761616 13.824649828125 0.8266319999999999 Q 13.777177828125 0.891648 13.711129828125 0.93912 L 14.020729828124999 1.477824 L 13.579033828125 1.477824 L 13.321033828125 1.027872 L 13.157977828125 1.027872 L 13.157977828125 1.477824 L 12.755497828125 1.477824 M 13.157977828125 0.6769919999999999 L 13.411849828125 0.6769919999999999 Q 13.436617828125 0.6769919999999999 13.459321828124999 0.6584159999999999 Q 13.482025828125 0.6398399999999999 13.497505828125 0.604752 Q 13.512985828125 0.569664 13.512985828125 0.5201279999999999 Q 13.512985828125 0.46852799999999983 13.495441828125 0.43447199999999997 Q 13.477897828125 0.4004159999999999 13.452097828125 0.38183999999999996 Q 13.426297828125 0.3632639999999998 13.401529828125 0.3632639999999998 L 13.157977828125 0.3632639999999998 L 13.157977828125 0.6769919999999999 M 15.0423846328125 0.4912319999999999 Q 15.0423846328125 0.4912319999999999 15.0072966328125 0.4705919999999999 Q 14.9722086328125 0.4499519999999999 14.914416632812499 0.42415199999999986 Q 14.8566246328125 0.3983519999999998 14.788512632812498 0.3777119999999998 Q 14.720400632812499 0.35707199999999983 14.654352632812499 0.35707199999999983 Q 14.6027526328125 0.35707199999999983 14.569728632812499 0.3735839999999999 Q 14.5367046328125 0.3900959999999998 14.5367046328125 0.4293119999999999 Q 14.5367046328125 0.466464 14.569728632812499 0.48916799999999994 Q 14.6027526328125 0.5118719999999999 14.663640632812498 0.5304479999999999 Q 14.724528632812499 0.5490239999999998 14.809152632812498 0.5758559999999999 Q 14.945376632812499 0.6171359999999999 15.044448632812498 0.6708 Q 15.1435206328125 0.7244639999999999 15.1971846328125 0.8080559999999999 Q 15.250848632812499 0.891648 15.250848632812499 1.029936 Q 15.250848632812499 1.162032 15.2033766328125 1.251816 Q 15.155904632812499 1.3416000000000001 15.075408632812499 1.395264 Q 14.994912632812499 1.448928 14.895840632812499 1.472664 Q 14.7967686328125 1.4964 14.693568632812498 1.4964 Q 14.588304632812498 1.4964 14.473752632812499 1.474728 Q 14.359200632812499 1.4530560000000001 14.2518726328125 1.414872 Q 14.144544632812499 1.376688 14.0557926328125 1.325088 L 14.229168632812499 0.972144 Q 14.229168632812499 0.972144 14.2704486328125 0.996912 Q 14.3117286328125 1.02168 14.379840632812499 1.05264 Q 14.447952632812498 1.0836 14.5315446328125 1.108368 Q 14.615136632812499 1.133136 14.699760632812499 1.133136 Q 14.7658086328125 1.133136 14.7916086328125 1.115592 Q 14.8174086328125 1.098048 14.8174086328125 1.0691519999999999 Q 14.8174086328125 1.025808 14.7720006328125 1.002072 Q 14.7265926328125 0.9783359999999999 14.653320632812498 0.956664 Q 14.580048632812499 0.9349919999999999 14.4912966328125 0.9060959999999999 Q 14.363328632812498 0.862752 14.2807686328125 0.8080559999999999 Q 14.198208632812499 0.7533599999999999 14.158992632812499 0.678024 Q 14.1197766328125 0.6026879999999999 14.1197766328125 0.4953599999999999 Q 14.1197766328125 0.33230399999999993 14.1961446328125 0.22291199999999978 Q 14.272512632812498 0.11351999999999984 14.397384632812498 0.05675999999999992 Q 14.5222566328125 -2.220446049250313e-16 14.6667366328125 -2.220446049250313e-16 Q 14.774064632812498 -2.220446049250313e-16 14.874168632812498 0.025799999999999823 Q 14.974272632812498 0.05159999999999987 15.0619926328125 0.08875199999999972 Q 15.149712632812498 0.1259039999999998 15.215760632812499 0.15892799999999974 L 15.0423846328125 0.4912319999999999" fill="#ffffff" fill-rule="nonzero"></path></g><g></g></g><defs><clipPath id="SvgjsClipPath12931"><path d=" M -5.442429764750652 -0.6207482462380076 h 5.037429764750652 v 2.7193204924760153 h -5.037429764750652 Z"></path></clipPath><clipPath id="SvgjsClipPath12929fed08696-c795-4989-bb9a-e9038a6995ff"><path d=" M -5.442429764750652 -0.6207482462380076 L -0.40500000000000025 -0.6207482462380076 L -0.40500000000000025 2.0985722462380076 L -5.442429764750652 2.0985722462380076 Z"></path></clipPath></defs></svg>